<svg width="130" height="90" viewBox="0 0 130 90" fill="none" xmlns="http://www.w3.org/2000/svg">
<path d="M22.1648 11.8693H17.9034C17.8466 11.4318 17.7301 11.0369 17.554 10.6847C17.3778 10.3324 17.1449 10.0312 16.8551 9.78125C16.5653 9.53125 16.2216 9.34091 15.8239 9.21023C15.4318 9.07386 14.9972 9.00568 14.5199 9.00568C13.6733 9.00568 12.9432 9.21307 12.3295 9.62784C11.7216 10.0426 11.2528 10.642 10.9233 11.4261C10.5994 12.2102 10.4375 13.1591 10.4375 14.2727C10.4375 15.4318 10.6023 16.4034 10.9318 17.1875C11.267 17.9659 11.7358 18.554 12.3381 18.9517C12.946 19.3437 13.6648 19.5398 14.4943 19.5398C14.9602 19.5398 15.3835 19.4801 15.7642 19.3608C16.1506 19.2415 16.4886 19.0682 16.7784 18.8409C17.0739 18.608 17.3153 18.3267 17.5028 17.9972C17.696 17.6619 17.8295 17.2841 17.9034 16.8636L22.1648 16.8892C22.0909 17.6619 21.8665 18.4233 21.4915 19.1733C21.1222 19.9233 20.6136 20.608 19.9659 21.2273C19.3182 21.8409 18.5284 22.3295 17.5966 22.6932C16.6705 23.0568 15.608 23.2386 14.4091 23.2386C12.8295 23.2386 11.4148 22.892 10.1648 22.1989C8.92045 21.5 7.9375 20.483 7.21591 19.1477C6.49432 17.8125 6.13352 16.1875 6.13352 14.2727C6.13352 12.3523 6.5 10.7244 7.23295 9.3892C7.96591 8.05398 8.95739 7.03977 10.2074 6.34659C11.4574 5.65341 12.858 5.30682 14.4091 5.30682C15.4659 5.30682 16.4432 5.45455 17.3409 5.75C18.2386 6.03977 19.0284 6.46591 19.7102 7.02841C20.392 7.58523 20.946 8.26989 21.3722 9.08239C21.7983 9.89489 22.0625 10.8239 22.1648 11.8693ZM28.7976 5.54545V23H24.5788V5.54545H28.7976ZM35.4091 5.54545L39.3125 18.3295H39.4574L43.3608 5.54545H48.0824L42.1932 23H36.5767L30.6875 5.54545H35.4091ZM54.1804 5.54545V23H49.9616V5.54545H54.1804ZM72.6726 11.8693H68.4112C68.3544 11.4318 68.2379 11.0369 68.0618 10.6847C67.8857 10.3324 67.6527 10.0312 67.3629 9.78125C67.0732 9.53125 66.7294 9.34091 66.3317 9.21023C65.9396 9.07386 65.505 9.00568 65.0277 9.00568C64.1811 9.00568 63.451 9.21307 62.8374 9.62784C62.2294 10.0426 61.7607 10.642 61.4311 11.4261C61.1072 12.2102 60.9453 13.1591 60.9453 14.2727C60.9453 15.4318 61.1101 16.4034 61.4396 17.1875C61.7749 17.9659 62.2436 18.554 62.8459 18.9517C63.4538 19.3437 64.1726 19.5398 65.0021 19.5398C65.468 19.5398 65.8913 19.4801 66.272 19.3608C66.6584 19.2415 66.9964 19.0682 67.2862 18.8409C67.5817 18.608 67.8232 18.3267 68.0107 17.9972C68.2038 17.6619 68.3374 17.2841 68.4112 16.8636L72.6726 16.8892C72.5987 17.6619 72.3743 18.4233 71.9993 19.1733C71.63 19.9233 71.1214 20.608 70.4737 21.2273C69.826 21.8409 69.0362 22.3295 68.1044 22.6932C67.1783 23.0568 66.1158 23.2386 64.9169 23.2386C63.3374 23.2386 61.9226 22.892 60.6726 22.1989C59.4283 21.5 58.4453 20.483 57.7237 19.1477C57.0021 17.8125 56.6413 16.1875 56.6413 14.2727C56.6413 12.3523 57.0078 10.7244 57.7408 9.3892C58.4737 8.05398 59.4652 7.03977 60.7152 6.34659C61.9652 5.65341 63.3658 5.30682 64.9169 5.30682C65.9737 5.30682 66.951 5.45455 67.8487 5.75C68.7464 6.03977 69.5362 6.46591 70.218 7.02841C70.8999 7.58523 71.4538 8.26989 71.88 9.08239C72.3061 9.89489 72.5703 10.8239 72.6726 11.8693ZM6.32102 34.5455H11.5455L15.9773 45.3523H16.1818L20.6136 34.5455H25.8381V52H21.7301V41.2784H21.5852L17.392 51.8892H14.767L10.5739 41.2188H10.429V52H6.32102V34.5455ZM28.4695 52V34.5455H40.6399V37.9716H32.6882V41.5511H40.0178V44.9858H32.6882V48.5739H40.6399V52H28.4695ZM49.7337 52H43.282V34.5455H49.7251C51.5036 34.5455 53.0348 34.8949 54.3189 35.5938C55.6087 36.2869 56.603 37.2869 57.3018 38.5938C58.0007 39.8949 58.3501 41.4517 58.3501 43.2642C58.3501 45.0824 58.0007 46.6449 57.3018 47.9517C56.6087 49.2585 55.6172 50.2614 54.3274 50.9602C53.0376 51.6534 51.5064 52 49.7337 52ZM47.5007 48.4034H49.5717C50.549 48.4034 51.3757 48.2386 52.0518 47.9091C52.7337 47.5739 53.2479 47.0312 53.5945 46.2812C53.9467 45.5256 54.1229 44.5199 54.1229 43.2642C54.1229 42.0085 53.9467 41.0085 53.5945 40.2642C53.2422 39.5142 52.7223 38.9744 52.0348 38.6449C51.353 38.3097 50.5121 38.142 49.5121 38.142H47.5007V48.4034ZM65.032 34.5455V52H60.8132V34.5455H65.032ZM71.456 52H66.9219L72.8111 34.5455H78.4276L84.3168 52H79.7827L75.6832 38.9432H75.5469L71.456 52ZM70.8509 45.1307H80.3281V48.3352H70.8509V45.1307ZM6.32102 81V63.5455H13.5312C14.8381 63.5455 15.9659 63.8011 16.9148 64.3125C17.8693 64.8182 18.6051 65.5256 19.1222 66.4347C19.6392 67.3381 19.8977 68.3892 19.8977 69.5881C19.8977 70.7926 19.6335 71.8466 19.1051 72.75C18.5824 73.6477 17.8352 74.3437 16.8636 74.8381C15.892 75.3324 14.7386 75.5795 13.4034 75.5795H8.95455V72.2557H12.6193C13.2557 72.2557 13.7869 72.1449 14.2131 71.9233C14.6449 71.7017 14.9716 71.392 15.1932 70.9943C15.4148 70.5909 15.5256 70.1222 15.5256 69.5881C15.5256 69.0483 15.4148 68.5824 15.1932 68.1903C14.9716 67.7926 14.6449 67.4858 14.2131 67.2699C13.7813 67.054 13.25 66.946 12.6193 66.946H10.5398V81H6.32102ZM21.9773 81V63.5455H29.1875C30.4943 63.5455 31.6222 63.7812 32.571 64.2528C33.5256 64.7187 34.2614 65.3892 34.7784 66.2642C35.2955 67.1335 35.554 68.1648 35.554 69.358C35.554 70.5682 35.2898 71.5966 34.7614 72.4432C34.233 73.2841 33.483 73.9261 32.5114 74.3693C31.5398 74.8068 30.3892 75.0256 29.0597 75.0256H24.5V71.7017H28.2756C28.9119 71.7017 29.4432 71.6193 29.8693 71.4545C30.3011 71.2841 30.6278 71.0284 30.8494 70.6875C31.071 70.3409 31.1818 69.8977 31.1818 69.358C31.1818 68.8182 31.071 68.3722 30.8494 68.0199C30.6278 67.6619 30.3011 67.3949 29.8693 67.2188C29.4375 67.0369 28.9063 66.946 28.2756 66.946H26.196V81H21.9773ZM31.804 73.0227L36.1506 81H31.5483L27.2869 73.0227H31.804ZM54.3423 72.2727C54.3423 74.1932 53.973 75.821 53.2344 77.1562C52.4957 78.4915 51.4957 79.5057 50.2344 80.1989C48.9787 80.892 47.5696 81.2386 46.0071 81.2386C44.4389 81.2386 43.027 80.8892 41.7713 80.1903C40.5156 79.4915 39.5185 78.4773 38.7798 77.1477C38.0469 75.8125 37.6804 74.1875 37.6804 72.2727C37.6804 70.3523 38.0469 68.7244 38.7798 67.3892C39.5185 66.054 40.5156 65.0398 41.7713 64.3466C43.027 63.6534 44.4389 63.3068 46.0071 63.3068C47.5696 63.3068 48.9787 63.6534 50.2344 64.3466C51.4957 65.0398 52.4957 66.054 53.2344 67.3892C53.973 68.7244 54.3423 70.3523 54.3423 72.2727ZM50.0298 72.2727C50.0298 71.1364 49.8679 70.1761 49.544 69.392C49.2259 68.608 48.7656 68.0142 48.1634 67.6108C47.5668 67.2074 46.848 67.0057 46.0071 67.0057C45.1719 67.0057 44.4531 67.2074 43.8509 67.6108C43.2486 68.0142 42.7855 68.608 42.4616 69.392C42.1435 70.1761 41.9844 71.1364 41.9844 72.2727C41.9844 73.4091 42.1435 74.3693 42.4616 75.1534C42.7855 75.9375 43.2486 76.5312 43.8509 76.9347C44.4531 77.3381 45.1719 77.5398 46.0071 77.5398C46.848 77.5398 47.5668 77.3381 48.1634 76.9347C48.7656 76.5312 49.2259 75.9375 49.544 75.1534C49.8679 74.3693 50.0298 73.4091 50.0298 72.2727ZM63.8963 63.5455H68.0554V75.6136C68.0497 76.7443 67.7798 77.733 67.2457 78.5795C66.7116 79.4205 65.973 80.0739 65.0298 80.5398C64.0923 81.0057 63.0071 81.2386 61.7741 81.2386C60.6832 81.2386 59.6918 81.0483 58.7997 80.6676C57.9134 80.2869 57.206 79.696 56.6776 78.8949C56.1548 78.0937 55.8963 77.0682 55.902 75.8182H60.1037C60.1207 76.267 60.206 76.6506 60.3594 76.9688C60.5185 77.2812 60.7372 77.517 61.0156 77.6761C61.294 77.8352 61.6264 77.9148 62.0128 77.9148C62.4162 77.9148 62.7571 77.8295 63.0355 77.6591C63.3139 77.483 63.5241 77.2244 63.6662 76.8835C63.8139 76.5426 63.8906 76.1193 63.8963 75.6136V63.5455ZM70.7038 81V63.5455H82.8743V66.9716H74.9226V70.5511H82.2521V73.9858H74.9226V77.5739H82.8743V81H70.7038ZM101.36 69.8693H97.0987C97.0419 69.4318 96.9254 69.0369 96.7493 68.6847C96.5732 68.3324 96.3402 68.0312 96.0504 67.7812C95.7607 67.5312 95.4169 67.3409 95.0192 67.2102C94.6271 67.0739 94.1925 67.0057 93.7152 67.0057C92.8686 67.0057 92.1385 67.2131 91.5249 67.6278C90.9169 68.0426 90.4482 68.642 90.1186 69.4261C89.7947 70.2102 89.6328 71.1591 89.6328 72.2727C89.6328 73.4318 89.7976 74.4034 90.1271 75.1875C90.4624 75.9659 90.9311 76.554 91.5334 76.9517C92.1413 77.3437 92.8601 77.5398 93.6896 77.5398C94.1555 77.5398 94.5788 77.4801 94.9595 77.3608C95.3459 77.2415 95.6839 77.0682 95.9737 76.8409C96.2692 76.608 96.5107 76.3267 96.6982 75.9972C96.8913 75.6619 97.0249 75.2841 97.0987 74.8636L101.36 74.8892C101.286 75.6619 101.062 76.4233 100.687 77.1733C100.317 77.9233 99.8089 78.608 99.1612 79.2273C98.5135 79.8409 97.7237 80.3295 96.7919 80.6932C95.8658 81.0568 94.8033 81.2386 93.6044 81.2386C92.0249 81.2386 90.6101 80.892 89.3601 80.1989C88.1158 79.5 87.1328 78.483 86.4112 77.1477C85.6896 75.8125 85.3288 74.1875 85.3288 72.2727C85.3288 70.3523 85.6953 68.7244 86.4283 67.3892C87.1612 66.054 88.1527 65.0398 89.4027 64.3466C90.6527 63.6534 92.0533 63.3068 93.6044 63.3068C94.6612 63.3068 95.6385 63.4545 96.5362 63.75C97.4339 64.0398 98.2237 64.4659 98.9055 65.0284C99.5874 65.5852 100.141 66.2699 100.567 67.0824C100.994 67.8949 101.258 68.8239 101.36 69.8693ZM103.203 66.9716V63.5455H117.956V66.9716H112.663V81H108.504V66.9716H103.203Z" fill="white"/>
</svg>
